:version 1.10
:name ASF
:units
  mass 1
  length 1
  angle deg
:documentation
  ASF file generated by Kaydara
:root
  axis xyz
  order  tx ty tz rx ry rz
  position 0 0 0
  orientation 0 0 0
:bonedata
  begin
    id 1
    name LeftUpLegDummy
    direction 1 -2.30186e-007 -8.31532e-007
    length 2.93387
    axis 0 0 0 xyz
  end
  begin
    id 2
    name LeftUpLeg
    direction -1.82929e-007 -1 -1.48925e-009
    length 17.3336
    axis -3.48766 0.00143442 -0.000521554 xyz
    dof rx ry rz
  end
  begin
    id 3
    name LeftLeg
    direction -1.82929e-007 -1 -5.23717e-011
    length 14.9995
    axis 3.68178 -0.00654042 -0.000282425 xyz
    dof rx ry rz
  end
  begin
    id 4
    name LeftFoot
    direction 8.31532e-007 -4.54534e-011 1
    length 6.74421
    axis 1.87234e-006 4.66016e-005 -5.96866e-006 xyz
    dof rx ry rz
  end
  begin
    id 5
    name LeftToes
    direction 0.00818058 -0.00485161 0.999955
    length 3.85048
    axis 1.06247e-005 4.65869e-005 -5.96999e-006 xyz
    dof rx ry rz
  end
  begin
    id 6
    name SpineDummy
    direction -5.8607e-008 0.943407 -0.331637
    length 5.93572
    axis 0 0 0 xyz
  end
  begin
    id 7
    name Spine
    direction -1.04988e-007 0.999988 0.00495137
    length 10.1015
    axis -0.001389 0.000121417 6.61666e-006 xyz
    dof rx ry rz
  end
  begin
    id 8
    name Spine1
    direction 0 0 0
    length 0
    axis -0.001389 0.00012144 6.56766e-006 xyz
    dof rx ry rz
  end
  begin
    id 9
    name RightShoulderDummy
    direction -0.98348 0.17941 -0.0240696
    length 3.59882
    axis -0.001389 0.00012144 6.56766e-006 xyz
  end
  begin
    id 10
    name RightShoulder
    direction -0.978693 0.204882 0.0135597
    length 2.70001
    axis 0.215806 0.000203631 -0.00679732 xyz
    dof rx ry rz
  end
  begin
    id 11
    name RightArm
    direction -1 3.85509e-006 8.31394e-007
    length 10.2459
    axis -23.2009 -0.134239 -0.964098 xyz
    dof rx ry rz
  end
  begin
    id 12
    name RightForeArm
    direction -1 3.85569e-006 8.3129e-007
    length 8.16799
    axis -9.92322 0.0658061 0.17887 xyz
    dof rx ry rz
  end
  begin
    id 13
    name RightHand
    direction -0.992843 -0.0414604 0.112003
    length 5.28593
    axis -0.00960638 0.00330669 -0.185225 xyz
    dof rx ry rz
  end
  begin
    id 14
    name LeftShoulder1Dummy
    direction 0.983523 0.179172 -0.0240748
    length 3.59866
    axis -0.001389 0.00012144 6.56766e-006 xyz
  end
  begin
    id 15
    name LeftShoulder1
    direction 0.978627 0.205195 0.0135605
    length 2.70019
    axis -0.001389 0.00012144 6.57583e-006 xyz
    dof rx ry rz
  end
  begin
    id 16
    name LeftArm
    direction 1 3.51895e-006 -8.60188e-007
    length 10.2459
    axis -23.1894 0.134785 0.967513 xyz
    dof rx ry rz
  end
  begin
    id 17
    name LeftForeArm
    direction 1 3.51921e-006 -7.32029e-007
    length 8.16799
    axis -9.91835 -0.0656957 -0.177789 xyz
    dof rx ry rz
  end
  begin
    id 18
    name LeftHand
    direction 0.992938 -0.0411636 0.11126
    length 5.32135
    axis -0.00960237 -0.00340661 0.185177 xyz
    dof rx ry rz
  end
  begin
    id 19
    name HEadDummy
    direction 1.01974e-006 0.999861 -0.016675
    length 2.99946
    axis -0.001389 0.00012144 6.56766e-006 xyz
  end
  begin
    id 20
    name HEad
    direction -0.0222689 0.980941 0.193023
    length 5.12695
    axis -0.001389 0.00012144 6.56766e-006 xyz
    dof rx ry rz
  end
  begin
    id 21
    name RightUpLegDummy
    direction -1 2.30186e-007 8.31532e-007
    length 2.93387
    axis 0 0 0 xyz
  end
  begin
    id 22
    name RightUpLeg
    direction -1.82966e-007 -1 1.56832e-007
    length 17.3336
    axis -3.4909 -0.000906625 0.00028951 xyz
    dof rx ry rz
  end
  begin
    id 23
    name RightLeg
    direction -1.82786e-007 -1 -1.80317e-007
    length 14.9995
    axis 3.68513 0.0193739 -0.131021 xyz
    dof rx ry rz
  end
  begin
    id 24
    name RightFoot
    direction 8.31721e-007 -4.63324e-011 1
    length 6.74421
    axis 4.81691e-005 -0.120479 -0.188785 xyz
    dof rx ry rz
  end
  begin
    id 25
    name RightToes
    direction 0.00124746 -0.014064 0.9999
    length 3.85082
    axis 0.000481921 0.542163 -0.142575 xyz
    dof rx ry rz
  end
:hierarchy
  begin
    root LeftUpLegDummy SpineDummy RightUpLegDummy
    LeftUpLegDummy LeftUpLeg
    LeftUpLeg LeftLeg
    LeftLeg LeftFoot
    LeftFoot LeftToes
    SpineDummy Spine
    Spine Spine1
    Spine1 RightShoulderDummy LeftShoulder1Dummy HEadDummy
    RightShoulderDummy RightShoulder
    RightShoulder RightArm
    RightArm RightForeArm
    RightForeArm RightHand
    LeftShoulder1Dummy LeftShoulder1
    LeftShoulder1 LeftArm
    LeftArm LeftForeArm
    LeftForeArm LeftHand
    HEadDummy HEad
    RightUpLegDummy RightUpLeg
    RightUpLeg RightLeg
    RightLeg RightFoot
    RightFoot RightToes
  end

:SAMPLES-PER-SECOND 30
:FULLY-SPECIFIED
:DEGREES
116
root  -7.50238 34.3333 0.750724 2.46039 33.4098 -3.54512
LeftUpLeg  -7.25114 4.37038 0.0483088
LeftLeg  12.5468 2.04028 0.3167
LeftFoot  -3.49449 -0.00342327 -0.11223
LeftToes  -4.08112 6.91067e-007 1.07128e-007
Spine  3.13595 0.658062 -0.77433
Spine1  6.18852 1.22728 -1.25812
RightShoulder  -0.00951231 7.38465 4.29706
RightArm  -43.029 -25.0326 78.5364
RightForeArm  27.1892 21.2785 3.93214
RightHand  0.283852 -6.31693 -4.91399
LeftShoulder1  0.0241437 0.342659 -9.23799
LeftArm  -17.9333 7.21399 -62.0395
LeftForeArm  24.7145 -21.6635 -4.00947
LeftHand  0.164046 4.70782 3.61386
HEad  1.45918 39.0535 -8.38656
RightUpLeg  -15.8225 -7.54316 -2.44787
RightLeg  19.1271 3.59269 0.991039
RightFoot  6.66414 -0.00261186 0.422365
RightToes  -38.8256 -0.20584 -0.305949
117
root  -7.51547 34.3145 0.89102 2.78347 35.6382 -3.08292
LeftUpLeg  -7.31581 3.78739 -0.145847
LeftLeg  12.4835 0.439372 0.0665836
LeftFoot  -3.35913 -0.000384635 -0.0131265
LeftToes  -4.73964 6.91067e-007 1.07128e-007
Spine  3.2221 0.77069 -0.830201
Spine1  6.36269 1.45819 -1.36716
RightShoulder  -0.0100709 7.4752 4.11001
RightArm  -42.848 -24.9078 78.6096
RightForeArm  27.0486 21.94 4.0674
RightHand  0.282412 -6.32706 -4.80164
LeftShoulder1  0.0243445 0.484183 -9.27826
LeftArm  -17.305 6.77304 -62.2097
LeftForeArm  24.7173 -22.6287 -4.20819
LeftHand  0.158132 4.58523 3.57294
HEad  0.380888 42.5483 -9.59631
RightUpLeg  -16.4178 -8.33939 -2.75996
RightLeg  16.1122 6.50849 1.43197
RightFoot  8.15957 -0.0398534 0.936212
RightToes  -38.8997 -0.209754 -0.308823
118
root  -7.52962 34.2967 1.05266 3.11106 37.8797 -2.67131
LeftUpLeg  -7.38359 3.35826 -0.244865
LeftLeg  12.4462 -1.28182 -0.199048
LeftFoot  -3.23306 0.00241289 0.0854898
LeftToes  -5.54697 6.91067e-007 1.07128e-007
Spine  3.3093 0.94826 -0.865368
Spine1  6.53806 1.81595 -1.42776
RightShoulder  -0.0104632 7.59168 3.94851
RightArm  -42.781 -24.5678 78.5269
RightForeArm  26.9455 22.4023 4.16273
RightHand  0.280596 -6.34962 -4.68064
LeftShoulder1  0.0244465 0.503782 -9.25755
LeftArm  -16.8134 6.54439 -62.4965
LeftForeArm  24.7472 -23.2929 -4.34665
LeftHand  0.15789 4.54993 3.63646
HEad  -0.995151 45.5806 -11.0292
RightUpLeg  -17.1936 -10.0293 -2.78129
RightLeg  13.8329 9.98244 1.78007
RightFoot  9.04534 -0.0963428 1.59537
RightToes  -39.7459 -0.216456 -0.313682
119
root  -7.54096 34.2778 1.25158 3.44281 40.2096 -2.29544
LeftUpLeg  -7.45415 2.79174 -0.244787
LeftLeg  12.4823 -2.97685 -0.462097
LeftFoot  -3.14165 0.00485652 0.177088
LeftToes  -6.57157 6.91067e-007 1.07128e-007
Spine  3.39287 1.13215 -0.876944
Spine1  6.70695 2.1854 -1.44123
RightShoulder  -0.0106925 7.76572 3.82086
RightArm  -42.891 -24.025 78.2847
RightForeArm  27.0238 22.6419 4.21234
RightHand  0.284302 -6.31276 -4.77711
LeftShoulder1  0.0244374 0.518886 -9.28416
LeftArm  -16.3805 6.44644 -62.757
LeftForeArm  24.8411 -23.5285 -4.39606
LeftHand  0.158585 4.45903 3.55885
HEad  -2.33124 48.1496 -12.3943
RightUpLeg  -17.7861 -11.6141 -2.77898
RightLeg  11.8464 14.4853 2.05992
RightFoot  9.96261 -0.191146 2.57015
RightToes  -41.5526 -0.231003 -0.323724
120
root  -7.54888 34.2621 1.48289 3.79994 42.5622 -1.93949
LeftUpLeg  -7.53208 2.0493 -0.173852
LeftLeg  12.5514 -4.50947 -0.704407
LeftFoot  -3.06082 0.00683048 0.25565
LeftToes  -7.66763 6.91067e-007 1.07128e-007
Spine  3.45296 1.33488 -0.872669
Spine1  6.82939 2.59109 -1.41784
RightShoulder  -0.0107104 7.92433 3.72664
RightArm  -42.6958 -23.3893 77.8434
RightForeArm  26.7168 22.8187 4.24919
RightHand  0.304924 -6.43311 -5.04666
LeftShoulder1  0.0239372 0.550744 -9.36532
LeftArm  -15.9691 6.43877 -62.9756
LeftForeArm  25.051 -23.2388 -4.33524
LeftHand  0.160151 4.4873 3.55057
HEad  -3.24187 50.2374 -13.3927
RightUpLeg  -18.1031 -11.4647 -3.19391
RightLeg  10.309 18.7976 2.15144
RightFoot  11.1686 -0.333218 3.78433
RightToes  -42.6278 -0.239808 -0.32948
121
root  -7.55126 34.2446 1.75395 4.17705 44.9839 -1.54311
LeftUpLeg  -7.55194 1.21825 -0.0665975
LeftLeg  12.621 -6.01177 -0.945272
LeftFoot  -2.96437 0.00846141 0.327004
LeftToes  -8.68729 6.91067e-007 1.07128e-007
Spine  3.49769 1.53809 -0.867027
Spine1  6.92214 3.00021 -1.40373
RightShoulder  -0.0105113 8.05678 3.61328
RightArm  -42.5181 -22.7237 77.37
RightForeArm  26.2367 23.0717 4.30211
RightHand  0.313061 -6.44352 -5.182
LeftShoulder1  0.0229732 0.545238 -9.39971
LeftArm  -15.7392 6.62913 -63.16
LeftForeArm  25.3427 -22.5795 -4.19784
LeftHand  0.161502 4.61503 3.57485
HEad  -3.62893 51.6576 -13.8175
RightUpLeg  -18.1166 -9.92735 -4.05019
RightLeg  9.53799 22.2965 2.23854
RightFoot  12.1393 -0.486284 4.94806
RightToes  -41.7068 -0.232259 -0.324559
122
root  -7.54688 34.2298 2.05918 4.58282 47.541 -1.11174
LeftUpLeg  -7.49091 0.151144 0.108843
LeftLeg  12.5627 -7.43397 -1.15962
LeftFoot  -2.8273 0.00948324 0.384271
LeftToes  -9.96111 6.91067e-007 1.07128e-007
Spine  3.50122 1.70873 -0.873136
Spine1  6.93145 3.34258 -1.40874
RightShoulder  -0.0100807 8.15729 3.47095
RightArm  -42.3638 -22.0746 76.9296
RightForeArm  25.5364 23.2933 4.34869
RightHand  0.329122 -6.50552 -5.41074
LeftShoulder1  0.0219659 0.54038 -9.44237
LeftArm  -15.6955 7.00983 -63.2022
LeftForeArm  25.6837 -21.5943 -3.99507
LeftHand  0.161698 4.73852 3.53148
HEad  -3.66374 52.4043 -13.813
RightUpLeg  -17.9658 -7.81394 -5.15827
RightLeg  10.0936 23.9074 2.61898
RightFoot  12.3158 -0.545969 5.43433
RightToes  -37.681 -0.200228 -0.301651
123
root  -7.52506 34.2057 2.41999 5.08645 50.3709 -0.558493
LeftUpLeg  -7.43529 -0.780281 0.322049
LeftLeg  12.6103 -9.24925 -1.44794
LeftFoot  -2.76223 0.0112448 0.466388
LeftToes  -11.3722 6.91067e-007 1.07128e-007
Spine  3.47388 1.79542 -0.897621
Spine1  6.87866 3.51908 -1.45583
RightShoulder  -0.00936208 8.17247 3.35833
RightArm  -41.9292 -21.483 76.5003
RightForeArm  24.712 23.6546 4.42487
RightHand  0.344504 -6.48583 -5.69875
LeftShoulder1  0.0208866 0.518531 -9.59034
LeftArm  -15.774 7.58606 -62.9099
LeftForeArm  26.1019 -20.4558 -3.76426
LeftHand  0.163601 4.78952 3.53535
HEad  -3.68751 52.8643 -13.8915
RightUpLeg  -17.2811 -5.06546 -6.51565
RightLeg  11.0148 23.1597 2.9082
RightFoot  10.4009 -0.370685 4.44834
RightToes  -33.752 -0.170592 -0.277179
124
root  -7.4748 34.1832 2.81825 5.67437 53.3105 0.149495
LeftUpLeg  -7.31629 -1.97769 0.520615
LeftLeg  12.7246 -10.8955 -1.72453
LeftFoot  -2.72981 0.0129602 0.543924
LeftToes  -12.7003 6.91067e-007 1.07128e-007
Spine  3.4505 1.87014 -0.928751
Spine1  6.83144 3.66908 -1.50983
RightShoulder  -0.00832407 8.0667 3.2748
RightArm  -41.4418 -20.9557 76.0316
RightForeArm  24.0667 24.1552 4.53097
RightHand  0.346078 -6.45371 -5.75675
LeftShoulder1  0.019707 0.493607 -9.77239
LeftArm  -16.0925 8.17647 -62.5216
LeftForeArm  26.6387 -19.0651 -3.48708
LeftHand  0.163221 4.88393 3.45108
HEad  -3.60382 53.0931 -13.8975
RightUpLeg  -16.4384 -4.82027 -7.11128
RightLeg  11.7125 20.8857 2.88832
RightFoot  8.66489 -0.222958 3.3196
RightToes  -36.8571 -0.193876 -0.296689
